<svg width="90" height="91" viewBox="0 0 90 91" fill="none" xmlns="http://www.w3.org/2000/svg">
<path d="M90 42.1095V38.4641L46.9216 7.27076H43.0784L33.3871 14.2875V8.72237H36.2903V0.0126953H7.25806V8.72237H10.1613V31.1062L0 38.4641V42.1095H7.25806V63.8837H0V84.2062H7.25806V90.0127H82.7419V59.5288C86.7448 59.5288 90 56.2736 90 52.2708C90 48.2679 86.7448 45.0127 82.7419 45.0127V42.1095H90ZM10.1613 2.91592H33.3871V5.81915H10.1613V2.91592ZM30.4839 8.72237V16.3905L13.0645 29.005V8.72237H30.4839ZM5.80645 75.4966V81.303H2.90323V66.7869H69.6774V81.303H66.7742V75.4966H63.871V81.303H60.9677V75.4966H58.0645V81.303H55.1613V75.4966H52.2581V81.303H49.3548V75.4966H46.4516V81.303H43.5484V75.4966H40.6452V81.303H37.7419V75.4966H34.8387V81.303H31.9355V75.4966H29.0323V81.303H26.129V75.4966H23.2258V81.303H20.3226V75.4966H17.4194V81.303H14.5161V75.4966H11.6129V81.303H8.70968V75.4966H5.80645ZM79.8387 87.1095H10.1613V84.2062H72.5807V63.8837H10.1613V42.1095H79.8387V45.0127H27.1415L16.2544 52.2708L27.1415 59.5288H79.8387V87.1095ZM76.9355 47.9159V56.6256H74.0323V47.9159H76.9355ZM30.4839 50.8191V47.9159H71.129V50.8191H30.4839ZM71.129 53.7224V56.6256H30.4839V53.7224H71.129ZM27.5806 48.2099V56.3335L21.4875 52.2708L27.5806 48.2099ZM87.0968 52.2708C87.0968 54.6714 85.1425 56.6256 82.7419 56.6256H79.8387V47.9159H82.7419C85.1425 47.9159 87.0968 49.8702 87.0968 52.2708ZM3.92661 39.2062L44.0183 10.174H45.9817L86.0734 39.2062H3.92661Z" fill="#CDA274"/>
<path d="M45 14.5283C38.5966 14.5283 33.3871 19.7378 33.3871 26.1412C33.3871 32.5446 38.5966 37.7541 45 37.7541C51.4034 37.7541 56.6129 32.5446 56.6129 26.1412C56.6129 19.7378 51.4034 14.5283 45 14.5283ZM45 34.8509C40.197 34.8509 36.2903 30.9442 36.2903 26.1412C36.2903 21.3382 40.197 17.4315 45 17.4315C49.803 17.4315 53.7097 21.3382 53.7097 26.1412C53.7097 30.9442 49.803 34.8509 45 34.8509Z" fill="#CDA274"/>
</svg>
