<svg width="52" height="52" viewBox="0 0 52 52" fill="none" xmlns="http://www.w3.org/2000/svg">
<circle cx="26" cy="26.0049" r="26" fill="#F4F0EC"/>
<path d="M36 26.5049C36 20.7062 31.2987 16.0049 25.5 16.0049C19.7013 16.0049 15 20.7062 15 26.5049C15 32.3036 19.7013 37.0049 25.5 37.0049C31.2987 37.0049 36 32.3036 36 26.5049Z" stroke="#CDA274" stroke-width="2" stroke-miterlimit="10"/>
<path d="M35.4475 22.3359C34.6349 22.341 34.7148 23.8488 33.7025 23.1374C33.3265 22.8738 33.0953 22.4906 32.6233 22.374C32.2109 22.2723 31.7885 22.3781 31.3812 22.4489C30.9183 22.5293 30.3693 22.5654 30.0182 22.9181C29.6787 23.2575 29.4991 23.713 29.1379 24.0544C28.4392 24.716 28.1442 25.4382 28.5965 26.3735C29.0316 27.2727 29.9418 27.7608 30.9238 27.6967C31.8887 27.632 32.8909 27.0692 32.8631 28.4794C32.853 28.9781 32.9567 29.3241 33.109 29.7878C33.2501 30.2152 33.2405 30.6295 33.2729 31.0707C33.3326 31.8951 33.4834 32.8193 33.8902 33.5475L34.6491 32.4707C34.7427 32.3374 34.9385 32.1506 34.985 31.9933C35.0675 31.715 34.9051 31.2366 34.8864 30.9246C34.8676 30.6127 34.8767 30.2967 34.8292 29.9847C34.7624 29.5475 34.5054 29.1379 34.47 28.7058C34.4047 27.9012 34.5509 27.259 33.9347 26.5862C33.3397 25.9374 32.4675 25.7817 31.6342 25.9135C31.2142 25.9796 29.5239 26.2514 30.2024 25.286C30.3364 25.0962 30.5707 24.9404 30.7215 24.7598C30.8525 24.6025 30.9663 24.3135 31.1201 24.1908C31.2739 24.0682 31.9802 23.9272 32.1826 23.9898C32.385 24.0524 32.596 24.346 32.7715 24.4763C33.0959 24.7221 33.4744 24.8855 33.875 24.9527C34.5661 25.0544 36.0111 24.6504 35.9999 23.7588C35.9979 23.3313 35.6033 22.7359 35.4475 22.3359ZM27.4475 29.6722C27.1778 28.5302 25.6352 28.1486 24.8035 27.5292C24.3254 27.173 23.8999 26.6229 23.272 26.5781C22.9826 26.5572 22.7402 26.6203 22.4534 26.5455C22.1903 26.4773 21.9839 26.3348 21.7036 26.372C21.1799 26.4412 20.8495 27.004 20.2869 26.9277C19.7532 26.8554 19.2032 26.2275 19.0818 25.716C18.926 25.0585 19.443 24.8453 19.997 24.7868C20.2282 24.7623 20.4878 24.7359 20.7099 24.8209C21.0023 24.9303 21.1405 25.2183 21.403 25.3639C21.8953 25.6351 21.995 25.2015 21.9196 24.7618C21.8068 24.1033 21.6752 23.8346 22.2591 23.3817C22.6638 23.0692 23.0099 22.8433 22.9451 22.2819C22.9067 21.9522 22.7271 21.8031 22.8946 21.4748C23.0215 21.2249 23.3701 20.9995 23.5973 20.8504C24.1837 20.4657 26.1093 20.4942 25.3226 19.4173C25.0913 19.1013 24.6648 18.5364 24.2601 18.459C23.7541 18.3629 23.5295 18.9308 23.1769 19.1812C22.8126 19.4402 22.1033 19.7344 21.7385 19.3339C21.2477 18.7949 22.0638 18.6178 22.2444 18.2417C22.425 17.8657 21.826 17.1547 21.5052 16.9746L19.997 18.6758C19.9537 18.9608 19.9688 19.2516 20.0414 19.5304C20.1139 19.8092 20.2424 20.0702 20.419 20.2972C20.719 20.6855 21.1966 20.8102 21.2184 21.3405C21.2396 21.8494 21.1607 22.1099 20.8298 22.4677C20.6866 22.6204 20.5854 22.8371 20.4397 22.9801C20.2611 23.1547 20.3274 23.1013 20.0486 23.1491C19.5245 23.2382 19.0782 23.3756 18.5718 23.516C17.7279 23.7506 17.65 22.3639 17.2655 21.8198L16.0006 22.8473C15.9869 23.0158 16.208 23.3257 16.2682 23.5089C16.6138 24.5557 17.311 25.3654 17.7613 26.3669C18.2353 27.4275 19.5083 27.1333 20.0704 28.0626C20.5693 28.887 20.0365 29.9308 20.4099 30.7939C20.6811 31.4203 21.3206 31.5572 21.7618 32.0152C22.2125 32.4778 22.2029 33.1109 22.2717 33.7129C22.3493 34.421 22.4753 35.1229 22.6487 35.8137C22.7099 36.0524 22.766 36.3679 22.9285 36.5648C23.0398 36.7002 23.4217 36.8167 23.2674 36.8615C23.483 36.8971 23.867 37.0997 24.0466 36.9511C24.2834 36.7557 24.2201 36.1541 24.2611 35.8824C24.384 35.0732 24.7868 34.2819 25.3302 33.6763C25.867 33.0788 26.6026 32.6743 27.0559 31.9969C27.4976 31.3363 27.6307 30.4453 27.4475 29.6722ZM25.7582 31.0117C25.4546 31.5567 24.7787 31.9216 24.3441 32.3547C24.2262 32.4722 23.9752 32.8793 23.8275 32.7913C23.7218 32.7282 23.6858 32.2 23.6469 32.0788C23.4459 31.4689 23.0622 30.9365 22.5485 30.5547C22.3901 30.4341 21.9975 30.2773 21.907 30.1119C21.8058 29.9323 21.8968 29.5084 21.9004 29.3129C21.9059 29.028 21.7769 28.5542 21.8468 28.2951C21.9277 27.9964 21.7719 28.1766 22.0375 28.1175C22.1776 28.086 22.7564 28.1883 22.931 28.2249C23.2082 28.2829 23.361 28.4565 23.5796 28.632C24.1543 29.0956 24.7873 29.4544 25.4313 29.8096C25.9302 30.0875 26.0769 30.4391 25.7582 31.0117ZM22.2368 16.9898C22.4766 17.2255 22.7023 17.5043 23.06 17.5278C23.3985 17.5507 23.7177 17.3664 24.0132 17.598C24.341 17.8524 24.5773 18.1746 25.0124 18.254C25.4334 18.3308 25.8791 18.0835 25.9833 17.6504C26.0845 17.2377 25.8665 16.7888 25.8533 16.3746C25.8533 16.3171 25.8842 16.0616 25.8447 16.0183C25.8154 15.9858 25.5705 16.0224 25.533 16.0234C25.2588 16.0316 24.9853 16.0506 24.7124 16.0804C23.7176 16.1887 22.7434 16.4398 21.8194 16.826C21.9424 16.9115 22.0967 16.9456 22.2368 16.9898ZM30.936 19.8489C31.3655 19.8489 31.8016 19.6555 31.663 19.1557C31.5466 18.7369 31.3483 18.2825 30.8657 18.5084C30.5585 18.6519 30.1234 19.0173 30.0875 19.3797C30.0465 19.7908 30.6496 19.8489 30.936 19.8489ZM30.5929 22.0356C31.0316 22.2997 31.6822 22.1756 32.0131 21.7985C32.2717 21.5033 32.4239 20.9908 32.8889 20.9914C33.0936 20.9909 33.2903 21.0715 33.4363 21.2158C33.6286 21.4158 33.5906 21.6036 33.6316 21.8539C33.7232 22.4163 34.3227 21.886 34.4791 21.6682C34.5803 21.5262 34.7174 21.3155 34.6713 21.1308C34.6288 20.9583 34.4285 20.7746 34.3394 20.6163C34.0794 20.1583 33.8654 19.6255 33.4758 19.2555C33.1009 18.8992 32.64 18.9405 32.2843 19.3104C31.9929 19.6158 31.6544 19.8575 31.4551 20.229C31.3144 20.4901 31.1561 20.6148 30.8712 20.6824C30.7144 20.7196 30.5353 20.7333 30.4037 20.8392C30.0374 21.1293 30.2459 21.826 30.5929 22.0356Z" fill="#CDA274"/>
</svg>
