<svg width="87" height="95" viewBox="0 0 87 95" fill="none" xmlns="http://www.w3.org/2000/svg">
<path d="M87 21.1802V0.617676H57.3407V32.9302H51.4088V50.5552H25.7053V68.1802H0V94.6177H80.0801V32.9302H60.3066V21.1802H87ZM60.3066 3.55518H84.0341V18.2427H60.3066V3.55518ZM28.6713 53.4927H51.4107V58.3891H28.6713V53.4927ZM2.96593 71.1177H25.7053V76.0141H2.96593V71.1177ZM77.1142 91.6802H2.96593V78.9516H25.7053V85.3168H28.6713V61.3266H51.4107V71.6079H54.3766V43.7016H77.1142V91.6802ZM77.1142 35.8677V40.7641H54.3748V35.8677H77.1142Z" fill="#CDA274"/>
<path d="M79.5852 6.49268H72.6653V9.43018H79.5852V6.49268Z" fill="#CDA274"/>
<path d="M79.585 12.3677H64.7554V15.3052H79.585V12.3677Z" fill="#CDA274"/>
<path d="M32.1303 11.3891V14.3266H40.4145L3.39966 50.9848L5.49805 53.0631L42.511 16.403V22.6489H45.4769V11.3891H32.1303Z" fill="#CDA274"/>
<path d="M9.39072 81.8891H5.43677V84.8266H9.39072V81.8891Z" fill="#CDA274"/>
<path d="M23.2325 81.8891H19.2786V84.8266H23.2325V81.8891Z" fill="#CDA274"/>
<path d="M35.0963 64.2641H31.1423V67.2016H35.0963V64.2641Z" fill="#CDA274"/>
<path d="M48.9378 64.2641H44.9839V67.2016H48.9378V64.2641Z" fill="#CDA274"/>
<path d="M60.8016 46.6392H56.8477V49.5767H60.8016V46.6392Z" fill="#CDA274"/>
<path d="M74.6412 46.6392H70.6873V49.5767H74.6412V46.6392Z" fill="#CDA274"/>
</svg>
