<svg width="93" height="93" viewBox="0 0 93 93" fill="none" xmlns="http://www.w3.org/2000/svg">
<path d="M92.5 89.335H89.5322V92.3027H92.5V89.335Z" fill="#CDA274"/>
<path d="M71.7258 15.1414V3.27048H47.9839V0.302734H45.0161V3.27048H21.2742V35.3332L12.371 30.1935V29.9802H12.0037L11.6828 29.7947L11.5752 29.9802H0.5V50.7543C0.5 54.0281 3.16169 56.6898 6.43548 56.6898H21.2742V62.6253H34.3026L28.9606 89.335H0.5V92.3027H86.5645V89.335H64.0394L58.6974 62.6253H71.7258V38.8834H83.5968V35.9156H81.0445L83.7303 25.1761L78.2289 18.3002C83.799 19.2759 88.0484 24.1356 88.0484 29.9802H91.0161C91.0161 25.1242 88.6605 20.8173 85.0417 18.1092H92.5V15.1414H71.7258ZM9.40323 50.7543C9.40323 52.3903 8.07145 53.7221 6.43548 53.7221C4.79952 53.7221 3.46774 52.3903 3.46774 50.7543V32.9479H9.40323V50.7543ZM20.3709 39.2822L23.3386 44.4201L13.7491 49.9586L19.6827 39.6791L20.3709 39.2822ZM12.371 34.5393L12.7698 33.8475L17.9077 36.8152L12.371 46.4085V34.5393ZM13.163 53.7221L23.4444 47.7866H24.2419V53.7221H13.163ZM45.0161 89.335H31.9877L37.3297 62.6253H45.0161V89.335ZM61.0123 89.335H47.9839V62.6253H55.6703L61.0123 89.335ZM68.6245 25.1761L71.3103 35.9156H68.7581V59.6576H24.2419V56.6898H27.2097V45.6127L27.3933 45.5052L27.2097 45.188V44.8189H26.9964L24.2419 40.0482V6.23822H68.7581V15.1414H59.8548V18.1092H67.3131C63.6944 20.8173 61.3387 25.1242 61.3387 29.9802H64.3065C64.3065 24.1356 68.5559 19.2759 74.126 18.2984L68.6245 25.1761ZM80.4955 25.8828L77.9877 35.9156H74.3671L71.8594 25.881L74.6936 22.3382V28.4963H77.6613V22.3401L80.4955 25.8828Z" fill="#CDA274"/>
<path d="M33.1451 12.1736H30.1774V15.1414H33.1451V12.1736Z" fill="#CDA274"/>
<path d="M62.8225 50.7543H59.8548V53.722H62.8225V50.7543Z" fill="#CDA274"/>
<path d="M59.8549 32.9478C59.8549 25.5841 53.8637 19.593 46.5 19.593C44.0999 19.593 41.8499 20.2385 39.9005 21.3514L35.8291 15.7535L33.429 17.4989L37.5059 23.1042C34.8331 25.547 33.1452 29.049 33.1452 32.9478C33.1452 40.3115 39.1363 46.3027 46.5 46.3027C48.9002 46.3027 51.1501 45.6572 53.0995 44.5443L57.1709 50.1422L59.5711 48.3968L55.4941 42.7915C58.167 40.3486 59.8549 36.8467 59.8549 32.9478ZM46.5 43.3349C40.7741 43.3349 36.1129 38.6737 36.1129 32.9478C36.1129 30.0357 37.3223 27.4019 39.2606 25.5155L51.343 42.1311C49.8944 42.8953 48.2491 43.3349 46.5 43.3349ZM41.657 23.7664C43.1057 23.0003 44.7509 22.5607 46.5 22.5607C52.2259 22.5607 56.8871 27.2219 56.8871 32.9478C56.8871 35.8599 55.6778 38.4938 53.7395 40.3802L41.657 23.7664Z" fill="#CDA274"/>
</svg>
