<svg width="52" height="52" viewBox="0 0 52 52" fill="none" xmlns="http://www.w3.org/2000/svg">
<circle cx="26" cy="26.0049" r="26" fill="#F4F0EC"/>
<path d="M35.3445 33.4603C34.5429 32.6527 32.6013 31.474 31.6593 30.999C30.4326 30.3811 30.3317 30.3306 29.3675 31.0469C28.7243 31.525 28.2967 31.952 27.5441 31.7915C26.7914 31.631 25.1558 30.7259 23.7236 29.2984C22.2914 27.8708 21.3338 26.1879 21.1727 25.4378C21.0117 24.6876 21.4458 24.2651 21.9194 23.6205C22.5867 22.7119 22.5362 22.5605 21.9658 21.3338C21.521 20.3798 20.308 18.4566 19.4972 17.659C18.6299 16.8024 18.6299 16.9538 18.0711 17.186C17.6162 17.3774 17.1797 17.6101 16.7672 17.8811C15.9594 18.4177 15.5112 18.8634 15.1977 19.5333C14.8842 20.2031 14.7433 21.7735 16.3623 24.7144C17.9813 27.6553 19.1171 29.159 21.468 31.5033C23.819 33.8475 25.6268 35.1079 28.2695 36.59C31.5387 38.4208 32.7927 38.064 33.4646 37.751C34.1365 37.438 34.5843 36.9938 35.1219 36.1862C35.3936 35.7744 35.6268 35.3384 35.8186 34.8838C36.0513 34.327 36.2027 34.327 35.3445 33.4603Z" stroke="#CDA274" stroke-width="2" stroke-miterlimit="10"/>
</svg>
