<svg width="86" height="87" viewBox="0 0 86 87" fill="none" xmlns="http://www.w3.org/2000/svg">
<path d="M58.7667 76.3744H55.9V69.2077V14.741C55.9 14.4544 55.7567 14.0244 55.6133 13.881L51.4567 1.41105C51.3134 0.837715 50.74 0.407715 50.1667 0.407715C49.5933 0.407715 49.02 0.837715 48.8767 1.41105L44.72 13.881C44.5767 14.1677 44.4333 14.4544 44.4333 14.741V69.2077V84.9744C44.4333 85.8344 45.0067 86.4077 45.8667 86.4077H54.4667C55.3267 86.4077 55.9 85.8344 55.9 84.9744V79.241H60.2C61.06 79.241 61.6334 78.6677 61.6334 77.8077V34.8077H58.7667V76.3744ZM47.3 16.1744H53.0333V67.7744H47.3V16.1744ZM50.1667 6.42771L52.46 13.3077H47.8734L50.1667 6.42771ZM53.0333 83.541H47.3V70.641H53.0333V83.541Z" fill="#CDA274"/>
<path d="M84.5667 0.407715H68.8C67.94 0.407715 67.3667 0.981048 67.3667 1.84105V84.9744C67.3667 85.8344 67.94 86.4077 68.8 86.4077H84.5667C85.4267 86.4077 86 85.8344 86 84.9744V1.84105C86 0.981048 85.4267 0.407715 84.5667 0.407715ZM83.1334 83.541H70.2334V73.5077H77.4V70.641H70.2334V59.1744H77.4V56.3077H70.2334V44.841H77.4V41.9744H70.2334V30.5077H77.4V27.641H70.2334V16.1744H77.4V13.3077H70.2334V3.27438H83.1334V83.541Z" fill="#CDA274"/>
<path d="M20.0667 14.7412C9.03 14.7412 0 23.7712 0 34.8079C0 42.5479 4.44333 49.5712 11.4667 52.8679V63.4745V70.6412C11.4667 71.5012 12.04 72.0745 12.9 72.0745H18.6333V76.3745H21.5V72.0745H27.2333C28.0933 72.0745 28.6667 71.5012 28.6667 70.6412V63.4745V52.8679C35.69 49.5712 40.1333 42.5479 40.1333 34.8079C40.1333 23.7712 31.1033 14.7412 20.0667 14.7412ZM25.8 69.2079H14.3333V64.9079H25.8V69.2079ZM26.66 50.7179C26.0867 50.8612 25.8 51.4345 25.8 52.0079V62.0412H14.3333V59.1745H21.5V56.3079H14.3333V52.0079C14.3333 51.4345 14.0467 50.8612 13.4733 50.7179C7.02333 47.9945 2.86667 41.6879 2.86667 34.8079C2.86667 25.3479 10.6067 17.6079 20.0667 17.6079C29.5267 17.6079 37.2667 25.3479 37.2667 34.8079C37.2667 41.6879 33.11 47.9945 26.66 50.7179Z" fill="#CDA274"/>
<path d="M23.3634 26.6377L20.0668 29.9344L16.7701 26.6377L14.7634 28.6444L18.6334 32.5144V47.7077H21.5001V32.5144L25.3701 28.6444L23.3634 26.6377Z" fill="#CDA274"/>
</svg>
